PathFileType	4	(X/Y/Z)	C:\Users\Basilio\Documents\Thesis Gigler\squatting_fais\c3dfiles\073\SLS_front_pre5\markers_experimental.trc
DataRate	CameraRate	NumFrames	NumMarkers	Units	OrigDataRate	OrigDataStartFrame	OrigNumFrames
200.000000	200.000000	4	61	mm	200.000000	639	1279
Frame#	Time	FHD			LBHD			RBHD			C7			T10			CLAV			LSHO			LUUPA			LMUPA			LDUPA			LLEP			LMEP			LRAD			LUL			LRFIN			RSHO			RUPA1			RMUPA			RDUPA			RLEP			RMEP			RUL			RUFIN			LASI			RASI			USACR			LSACR			RSACR			LTHI1			LTHI2			LTHI3			LTHI4			LLFC			LMFC			LTIB1			LTIB2			LTIB3			LTIB4			LLMAL			LMMAL			LHEE			LMT1			LMT2			LMT5			RTHI			RTHI2			RTHI3			RTHI4			RLFC			RMFC			RTIB1			RTIB2			RTIB3			RTIB4			RLMAL			RMMAL			RHEE			RMT1			RMT2			RMT5			RRAD			
		X1	Y1	Z1	X2	Y2	Z2	X3	Y3	Z3	X4	Y4	Z4	X5	Y5	Z5	X6	Y6	Z6	X7	Y7	Z7	X8	Y8	Z8	X9	Y9	Z9	X10	Y10	Z10	X11	Y11	Z11	X12	Y12	Z12	X13	Y13	Z13	X14	Y14	Z14	X15	Y15	Z15	X16	Y16	Z16	X17	Y17	Z17	X18	Y18	Z18	X19	Y19	Z19	X20	Y20	Z20	X21	Y21	Z21	X22	Y22	Z22	X23	Y23	Z23	X24	Y24	Z24	X25	Y25	Z25	X26	Y26	Z26	X27	Y27	Z27	X28	Y28	Z28	X29	Y29	Z29	X30	Y30	Z30	X31	Y31	Z31	X32	Y32	Z32	X33	Y33	Z33	X34	Y34	Z34	X35	Y35	Z35	X36	Y36	Z36	X37	Y37	Z37	X38	Y38	Z38	X39	Y39	Z39	X40	Y40	Z40	X41	Y41	Z41	X42	Y42	Z42	X43	Y43	Z43	X44	Y44	Z44	X45	Y45	Z45	X46	Y46	Z46	X47	Y47	Z47	X48	Y48	Z48	X49	Y49	Z49	X50	Y50	Z50	X51	Y51	Z51	X52	Y52	Z52	X53	Y53	Z53	X54	Y54	Z54	X55	Y55	Z55	X56	Y56	Z56	X57	Y57	Z57	X58	Y58	Z58	X59	Y59	Z59	X60	Y60	Z60	X61	Y61	Z61	

640	3.195	-115.1198272705078	1371.59130859375	-783.4466552734377	-250.7310180664063	1348.5771484375	-807.434509277344	-274.2693176269532	1332.080688476563	-673.6925659179689	-301.5170898437501	1259.359252929688	-738.1207885742189	-522.7359619140626	1016.049072265625	-742.6253662109376	-217.0431671142579	1131.326049804688	-739.9093017578126	-223.2649383544922	1204.425415039063	-873.2239990234377	-154.8726959228516	1127.60205078125	-972.4155273437502	-113.0011978149414	1139.842895507813	-947.811462402344	-96.9977951049805	1091.550170898438	-981.4517822265627	3.705557346343995	1054.641845703125	-984.1628417968752	-6.195412635803224	1000.335815429688	-940.3485107421877	261.9168395996094	1061.512329101563	-865.8828125000002	267.7846069335938	1059.43017578125	-939.8021240234377	342.5396423339844	1070.62744140625	-855.663513183594	-212.6921691894532	1186.305541992188	-604.8522338867189	-139.2200164794922	1081.032592773438	-502.4008178710939	-97.87386322021487	1097.371704101563	-520.9073486328126	-80.4424285888672	1045.20947265625	-497.6487121582032	9.69871234893799	1017.760009765625	-499.8550415039064	-0.8906405568122866	964.1842041015627	-562.1738891601564	272.1433410644532	1041.2568359375	-555.1458740234376	346.3132629394532	1052.447875976563	-640.2476806640626	-412.3724670410157	833.5630493164065	-879.223327636719	-390.9592590332032	819.4655761718752	-635.1984863281251	-577.2658691406251	870.1995849609377	-741.6618652343751	-587.1002807617189	840.5543212890627	-770.2920532226565	-584.8673706054689	835.7071533203127	-715.0120239257814	-214.7929229736329	661.0458374023439	-940.0122070312502	-132.6463623046875	658.3484497070314	-918.0762939453127	-119.9184875488282	694.7022094726564	-885.171813964844	-99.54534149169925	610.9868774414064	-909.2547607421877	-48.07872009277345	582.9705200195314	-909.1145629882815	-51.14996719360353	572.4385986328126	-768.8770751953127	142.0171508789063	516.1444091796876	-855.0529785156252	145.87646484375	448.5836181640626	-910.9400634765627	172.7341918945313	477.3288879394532	-888.4919433593752	238.2119598388672	433.8789978027345	-855.6289672851565	303.4812316894532	318.1053161621094	-883.9265136718752	288.8047790527344	335.7728576660157	-799.0855102539065	296.4033508300782	249.0421905517579	-844.7886962890627	429.3738098144532	424.3916931152345	-794.062683105469	430.3111267089845	428.1379394531251	-832.5312500000002	430.3398742675782	388.9583129882814	-887.766052246094	-321.4512634277344	604.1398925781251	-587.1230468750001	-256.1144409179688	591.7189331054689	-591.0396118164064	-233.9941406250001	616.3668212890626	-594.2365112304689	-219.7803344726563	521.0988769531251	-617.0546875000001	-125.2414245605469	429.7730407714845	-651.0162353515626	-125.2833328247071	441.4169311523439	-781.1155395507815	-163.1479797363282	292.0455017089844	-758.9792480468751	-220.6436462402344	225.4634094238282	-695.0812988281251	-205.4209899902344	218.1737060546876	-739.7089843750001	-249.4009399414063	195.5437164306641	-771.6858520507815	-352.0085144042969	96.52835845947268	-719.8110351562501	-341.9965820312501	130.1187744140625	-805.4563598632815	-431.4327392578126	86.20339965820314	-775.5918579101565	-208.0068664550782	54.60786819458009	-789.5933837890627	-208.3777008056641	50.463924407959	-748.3312988281251	-251.9333953857422	33.69391632080079	-700.4973754882814	259.2030334472657	1032.022827148438	-630.4492797851564	
641	3.2	-115.2918853759766	1372.176635742188	-783.317077636719	-251.0284576416016	1349.046997070313	-807.368103027344	-274.4536132812501	1332.606811523438	-673.6359863281251	-301.6902160644532	1259.765625	-738.1320190429689	-522.8225097656251	1016.348083496094	-742.6708374023439	-217.1114654541016	1131.865478515625	-739.9095458984376	-223.4295654296876	1204.940551757813	-873.234802246094	-155.0946044921875	1127.985595703125	-972.370056152344	-113.1709060668946	1140.341186523438	-947.7924804687502	-97.10817718505862	1092.054321289063	-981.5242919921877	3.592454433441163	1055.148315429688	-984.1516723632815	-6.249596118927004	1000.903198242188	-940.2927246093752	261.7515869140626	1061.968383789063	-865.8937988281252	267.6018981933594	1059.94677734375	-939.876403808594	342.4631042480469	1071.1220703125	-855.7580566406252	-212.8398590087891	1186.752075195313	-604.9008178710939	-139.3887634277344	1081.439453125	-502.3604125976564	-98.01045227050784	1097.755004882813	-520.9100341796876	-80.57470703125001	1045.628295898438	-497.7020263671876	9.612391471862795	1018.164367675781	-499.8463439941407	-1.074570655822754	964.6422119140627	-562.1679687500001	271.9737854003907	1041.806030273438	-555.1589965820314	346.1592102050782	1053.112182617188	-640.2572631835939	-412.457489013672	833.7334594726565	-879.168151855469	-390.9769592285157	819.864196777344	-635.2838134765626	-577.2926025390626	870.5445556640627	-741.8211669921876	-587.1283569335939	840.8564453125002	-770.3890380859377	-584.9268188476564	835.993347167969	-715.0870361328126	-214.7760772705079	661.3529663085939	-939.997985839844	-132.6746978759766	658.5493164062501	-918.0646972656252	-120.0094680786133	694.9348754882814	-885.117614746094	-99.54863739013675	611.3080444335939	-909.2106933593752	-48.1228713989258	583.2075195312501	-909.0906982421877	-51.27815246582033	572.6087036132814	-768.8297119140627	141.9243469238282	516.3301391601564	-854.940856933594	145.6962280273438	448.7789001464845	-910.8306884765627	172.5788879394532	477.5137329101564	-888.332946777344	238.1079101562501	434.082000732422	-855.5042114257815	303.4042663574219	318.2813110351563	-883.8062744140627	288.6856384277344	335.9746704101563	-798.954772949219	296.3304443359376	249.1998748779297	-844.4716796875002	429.2238159179689	424.621795654297	-793.8210449218752	430.2183532714845	428.3208923339845	-832.4153442382815	430.3969726562501	389.2015380859376	-887.619812011719	-321.6495971679688	604.4201049804689	-587.0243530273439	-256.2893371582032	591.9823608398439	-590.9658813476564	-234.1895751953126	616.5877075195314	-594.1966552734376	-219.9941406250001	521.3167114257814	-617.0048217773439	-125.4866485595703	429.932342529297	-650.8898925781251	-125.3570175170899	441.5796813964845	-780.9883422851565	-163.3406524658203	292.1318359375001	-758.8927001953126	-220.7418518066407	225.5081481933594	-694.9191894531251	-205.5067443847657	218.2548522949219	-739.5656127929689	-249.4481811523438	195.6445312500001	-771.5955200195315	-352.0286560058594	96.51102447509768	-719.8090820312501	-342.0128784179688	130.1039733886719	-805.449890136719	-431.4588012695314	86.23095703125001	-775.6057739257815	-208.0293731689454	54.60150527954103	-789.6348266601565	-208.385971069336	50.49372482299806	-748.3096923828126	-251.9373168945313	33.69213867187501	-700.4954833984376	258.8695983886719	1032.684204101563	-630.4760742187501	
642	3.205	-115.4763488769532	1372.68017578125	-783.2500000000002	-251.1744079589844	1349.455200195313	-807.3769531250002	-274.6082763671876	1333.09130859375	-673.7268066406251	-301.8757629394532	1260.202270507813	-738.1453247070314	-522.9121704101564	1016.675231933594	-742.7600708007814	-217.287826538086	1132.32861328125	-739.8832397460939	-223.6812896728516	1205.45703125	-873.273864746094	-155.2178802490235	1128.498901367188	-972.359313964844	-113.2796096801758	1140.807861328125	-947.8162841796877	-97.32301330566409	1092.656127929688	-981.563171386719	3.407968997955323	1055.671875	-984.2122192382815	-6.342679023742678	1001.314697265625	-940.1983032226565	261.6665039062501	1062.397094726563	-865.9550781250002	267.4547424316407	1060.549926757813	-940.1293945312502	342.3790588378907	1071.56640625	-855.890319824219	-213.0328063964844	1187.227661132813	-604.8193969726564	-139.5895385742188	1081.851440429688	-502.3826904296876	-98.24467468261722	1098.1611328125	-520.9437255859376	-80.67193603515626	1046.081176757813	-497.6826782226564	9.455587387084963	1018.611083984375	-499.8392333984376	-1.18596351146698	965.1307373046877	-562.1691894531251	271.8040466308594	1042.370849609375	-555.1439819335939	345.9834594726563	1053.742919921875	-640.3411254882814	-412.4573974609376	833.8497314453127	-879.1850585937502	-391.0768127441407	820.2388916015627	-635.2435302734376	-577.3300170898439	870.8972778320315	-741.9448242187501	-587.1661987304689	841.1933593750002	-770.5071411132815	-584.9529418945314	836.3503417968752	-715.1862182617189	-214.8308868408204	661.6515502929689	-939.9675292968752	-132.7593231201172	658.7504272460939	-918.0020141601565	-120.158187866211	695.1264038085939	-885.0889892578127	-99.69466400146487	611.5454101562501	-909.2026367187502	-48.25012969970705	583.3891601562501	-908.969421386719	-51.36875534057619	572.8383178710939	-768.7990722656252	141.8886260986328	516.5683593750001	-854.8402099609377	145.6351165771485	448.9644775390626	-910.7119750976565	172.6265716552735	477.7057189941407	-888.2294921875002	238.0404357910157	434.2755737304689	-855.3567504882815	303.4143981933594	318.4461364746094	-883.676696777344	288.5583496093751	336.1137695312501	-798.6910400390627	296.1869201660157	249.4006805419922	-844.2940063476565	429.0739746093751	424.8551025390626	-793.6043701171877	430.1036376953126	428.5467224121095	-832.185974121094	430.327117919922	389.3894653320314	-887.4490966796877	-321.8677978515626	604.7468872070314	-587.0032958984376	-256.4910583496094	592.2345581054689	-590.9270629882814	-234.3903198242188	616.8582153320314	-594.0668945312501	-220.2369842529297	521.5532226562501	-616.9729003906251	-125.7752075195313	430.0899353027345	-650.7413940429689	-125.6310958862305	441.5851135253907	-780.8183593750002	-163.5191345214844	292.2073059082032	-758.8279418945314	-220.9032897949219	225.5995483398438	-694.8340454101564	-205.5814819335938	218.3090362548829	-739.5307006835939	-249.5010681152344	195.6920318603516	-771.4690551757815	-352.0241394042969	96.47699737548831	-719.8094482421876	-342.0270385742188	130.1185150146485	-805.3966064453127	-431.4522399902345	86.19906616210939	-775.5930786132815	-207.9967651367188	54.62672424316408	-789.587341308594	-208.378402709961	50.45946502685548	-748.3007202148439	-251.9321594238282	33.6881446838379	-700.5017089843751	258.7732238769532	1033.075805664063	-630.4217529296876	
643	3.21	-115.6484680175782	1373.247802734375	-783.2354736328127	-251.3439025878907	1349.925659179688	-807.3774414062502	-274.7651062011719	1333.490112304688	-673.6873168945314	-302.0206909179688	1260.6875	-738.1848144531251	-522.9672851562501	1017.043090820313	-742.7852172851564	-217.3826293945313	1132.861694335938	-739.8460083007814	-223.812728881836	1205.97802734375	-873.293151855469	-155.2909088134766	1128.992797851563	-972.4072265625002	-113.4014282226563	1141.301025390625	-947.810241699219	-97.48380279541018	1093.250732421875	-981.6352539062502	3.251632690429688	1056.1650390625	-984.2852172851565	-6.44262742996216	1001.833557128906	-940.4024047851565	261.5237426757813	1062.798095703125	-866.0617675781252	267.2889404296876	1061.020751953125	-940.1536254882815	342.2794189453126	1072.042724609375	-856.0379638671877	-213.2050933837891	1187.712768554688	-604.8008422851564	-139.731918334961	1082.328979492188	-502.3028564453126	-98.37343597412112	1098.617431640625	-520.9418334960939	-80.79333496093751	1046.5068359375	-497.675262451172	9.286245346069338	1019.07568359375	-499.7724914550782	-1.321470379829407	965.6271972656252	-562.2608032226564	271.5927429199219	1042.865234375	-555.1533813476564	345.7689819335938	1054.399536132813	-640.3352050781251	-412.502166748047	833.9835205078127	-879.2224731445315	-391.1231384277345	820.5954589843752	-635.3051147460939	-577.3844604492189	871.2762451171877	-742.0639648437501	-587.2397460937501	841.5489501953127	-770.6003417968752	-585.0515747070314	836.7255859375002	-715.2870483398439	-214.8892211914063	661.9655151367189	-939.885681152344	-132.7733764648438	658.9774169921876	-917.9309692382815	-120.1608810424805	695.4425048828126	-885.0468750000002	-99.77417755126956	611.7995605468751	-909.0874633789065	-48.3463821411133	583.6314697265626	-908.9586181640627	-51.53333663940431	573.0637207031251	-768.8071289062502	141.7832336425782	516.7193603515626	-854.797058105469	145.4962463378907	449.1833496093751	-910.6898193359377	172.5059814453125	477.8435058593751	-888.197937011719	237.9326629638672	434.4820556640626	-855.1741333007815	303.3002929687501	318.5593261718751	-883.5171508789065	288.3974914550782	336.3498535156251	-798.5714111328127	296.1362915039063	249.5496826171876	-844.035339355469	428.946014404297	425.086639404297	-793.4271240234377	429.964324951172	428.7288513183595	-831.9534912109377	430.2513122558595	389.5451965332032	-887.2559204101565	-322.0741577148438	605.0686035156251	-586.9422607421876	-256.6962280273438	592.5001220703126	-590.8106689453126	-234.5628509521485	617.1300048828126	-593.9638061523439	-220.5026397705079	521.8027343750001	-616.8787841796876	-126.025390625	430.2573242187501	-650.5614013671876	-125.9253234863282	441.7768554687501	-780.6999511718752	-163.6665649414063	292.3054504394532	-758.6322631835939	-221.0332641601563	225.5823669433594	-694.6613769531251	-205.6842803955079	218.4247436523438	-739.4067382812501	-249.5548248291016	195.7226257324219	-771.4086914062502	-352.0518493652344	96.48349761962893	-719.7952880859376	-342.0417785644532	130.1213073730469	-805.3826904296877	-431.4898681640626	86.18870544433595	-775.6123657226565	-208.0197906494141	54.61143875122072	-789.5920410156252	-208.3817443847657	50.44530105590822	-748.2865600585939	-251.9243469238282	33.66363525390626	-700.4973144531251	258.6153259277344	1033.51513671875	-630.5163574218751	
